<?xml version="1.0" encoding="utf-8"?>
<!-- Generator: Adobe Illustrator 18.0.0, SVG Export Plug-In . SVG Version: 6.00 Build 0)  -->
<!DOCTYPE svg PUBLIC "-//W3C//DTD SVG 1.1//EN" "http://www.w3.org/Graphics/SVG/1.1/DTD/svg11.dtd">
<svg version="1.1" id="Layer_1" xmlns="http://www.w3.org/2000/svg" xmlns:xlink="http://www.w3.org/1999/xlink" x="0px" y="0px"
	 viewBox="0 0 36 36" enable-background="new 0 0 36 36" xml:space="preserve">
<path fill="#FFFFFF" d="M31.5,11.4c0-0.1,0-0.2-0.1-0.3c0,0,0-0.1,0-0.1c-0.4-1.1-1.4-1.8-2.5-1.8h0.2c0,0-4.7-0.7-11.1-0.7
	c-6.3,0-11.1,0.7-11.1,0.7h0.2c-1.2,0-2.2,0.8-2.5,1.8c0,0,0,0.1,0,0.1c0,0.1,0,0.2-0.1,0.3C4.3,12.6,4,15.1,4,18
	c0,2.9,0.3,5.4,0.5,6.6c0,0.1,0,0.2,0.1,0.3c0,0,0,0.1,0,0.1c0.4,1.1,1.4,1.8,2.5,1.8H6.9c0,0,4.7,0.7,11.1,0.7
	c6.3,0,11.1-0.7,11.1-0.7h-0.2c1.2,0,2.2-0.8,2.5-1.8c0,0,0-0.1,0-0.1c0-0.1,0.1-0.2,0.1-0.3c0.2-1.2,0.5-3.7,0.5-6.6
	C32,15.1,31.7,12.6,31.5,11.4z M22.1,18.6l-5.7,4.1c-0.1,0.1-0.3,0.1-0.4,0.1c-0.1,0-0.2,0-0.3-0.1c-0.2-0.1-0.4-0.4-0.4-0.6v-8.2
	c0-0.3,0.1-0.5,0.4-0.6c0.2-0.1,0.5-0.1,0.7,0.1l5.7,4.1c0.2,0.1,0.3,0.3,0.3,0.6C22.4,18.3,22.3,18.5,22.1,18.6z"/>
</svg>
