<?xml version="1.0" encoding="utf-8"?>
<!-- Generator: Adobe Illustrator 17.1.0, SVG Export Plug-In . SVG Version: 6.00 Build 0)  -->
<!DOCTYPE svg PUBLIC "-//W3C//DTD SVG 1.1//EN" "http://www.w3.org/Graphics/SVG/1.1/DTD/svg11.dtd">
<svg version="1.1" id="Layer_1" xmlns="http://www.w3.org/2000/svg" xmlns:xlink="http://www.w3.org/1999/xlink" x="0px" y="0px"
	 viewBox="0 0 36 36" enable-background="new 0 0 36 36" xml:space="preserve">
<path fill="#FFFFFF" d="M25.668,5.5H10.332C7.668,5.5,5.5,7.667,5.5,10.331v5.103v10.235c0,2.664,2.168,4.831,4.832,4.831h15.336
	c2.664,0,4.832-2.167,4.832-4.831V15.434v-5.103C30.5,7.667,28.332,5.5,25.668,5.5z M27.055,8.382l0.553-0.002V8.93v3.687
	l-4.225,0.013l-0.014-4.237L27.055,8.382z M14.433,15.434c0.8-1.108,2.099-1.835,3.567-1.835s2.768,0.726,3.567,1.835
	c0.523,0.723,0.834,1.608,0.834,2.566c0,2.426-1.975,4.4-4.401,4.4s-4.4-1.974-4.4-4.4C13.6,17.042,13.912,16.157,14.433,15.434z
	 M28.064,25.669c0,1.322-1.074,2.395-2.396,2.395H10.332c-1.322,0-2.396-1.074-2.396-2.395V15.434h3.732
	c-0.323,0.793-0.504,1.659-0.504,2.566c0,3.769,3.066,6.836,6.836,6.836c3.769,0,6.836-3.068,6.836-6.836
	c0-0.907-0.182-1.773-0.504-2.566h3.732V25.669z"/>
</svg>
