<?xml version="1.0" encoding="utf-8"?>
<!-- Generator: Adobe Illustrator 17.1.0, SVG Export Plug-In . SVG Version: 6.00 Build 0)  -->
<!DOCTYPE svg PUBLIC "-//W3C//DTD SVG 1.1//EN" "http://www.w3.org/Graphics/SVG/1.1/DTD/svg11.dtd">
<svg version="1.1" id="Layer_1" xmlns="http://www.w3.org/2000/svg" xmlns:xlink="http://www.w3.org/1999/xlink" x="0px" y="0px"
	 viewBox="0 0 36 36" enable-background="new 0 0 36 36" xml:space="preserve">
<g>
	<g>
		<path fill="#FFFFFF" d="M30.5,9.651c-0.925,0.447-1.908,0.736-2.95,0.87c1.062-0.684,1.877-1.76,2.263-3.05
			c-0.993,0.63-2.093,1.08-3.264,1.343c-0.932-1.078-2.27-1.75-3.741-1.75c-2.833,0-5.129,2.47-5.129,5.523
			c0,0.429,0.044,0.853,0.129,1.252c-4.254-0.22-8.039-2.427-10.571-5.761c-0.439,0.813-0.691,1.76-0.691,2.776
			c0,1.911,0.904,3.612,2.283,4.588c-0.842-0.034-1.633-0.269-2.324-0.687c0,0.023,0,0.051,0,0.075c0,2.67,1.768,4.899,4.114,5.415
			c-0.43,0.125-0.884,0.182-1.355,0.182c-0.33,0-0.642-0.023-0.959-0.098c0.65,2.202,2.546,3.801,4.79,3.834
			c-1.756,1.488-3.967,2.363-6.37,2.363c-0.415,0-0.825-0.024-1.225-0.077c2.269,1.574,4.96,2.491,7.863,2.491
			c9.433,0,14.594-8.417,14.594-15.713c0-0.233-0.005-0.47-0.017-0.706C28.941,11.729,29.813,10.755,30.5,9.651z"/>
	</g>
</g>
</svg>
