<?xml version="1.0" encoding="utf-8"?>
<!-- Generator: Adobe Illustrator 17.1.0, SVG Export Plug-In . SVG Version: 6.00 Build 0)  -->
<!DOCTYPE svg PUBLIC "-//W3C//DTD SVG 1.1//EN" "http://www.w3.org/Graphics/SVG/1.1/DTD/svg11.dtd">
<svg version="1.1" id="Layer_1" xmlns="http://www.w3.org/2000/svg" xmlns:xlink="http://www.w3.org/1999/xlink" x="0px" y="0px"
	 viewBox="0 0 36 36" enable-background="new 0 0 36 36" xml:space="preserve">
<g id="hSv1vh.tif">
	<g>
		<path fill="#FFFFFF" d="M7.044,9.319c0-0.02,0-0.039,0-0.059c0.039-0.001,0.078-0.002,0.117-0.002c0.56,0,1.119,0,1.679,0
			c0.787,0,1.575,0,2.362,0c0.037,0,0.075,0.002,0.11,0.004c0.009,0.061,0.017,0.11,0.023,0.158c0.074,0.554,0.14,1.109,0.224,1.662
			c0.088,0.581,0.187,1.161,0.292,1.74c0.134,0.732,0.29,1.459,0.465,2.183c0.192,0.796,0.408,1.585,0.654,2.366
			c0.243,0.772,0.514,1.533,0.819,2.283c0.394,0.971,0.841,1.915,1.348,2.832c0.755,1.364,1.639,2.64,2.625,3.845
			c0.034,0.042,0.07,0.082,0.105,0.123c0.401-0.345,1.523-1.663,2.152-2.529c0.815-1.123,1.531-2.306,2.154-3.552
			c-0.032-0.018-0.06-0.034-0.088-0.049c-0.823-0.434-1.541-1.001-2.16-1.696c-0.861-0.968-1.457-2.084-1.843-3.315
			c-0.284-0.905-0.433-1.834-0.472-2.78c-0.028-0.681,0.005-1.358,0.126-2.031c0.129-0.718,0.347-1.406,0.686-2.053
			c0.392-0.749,0.916-1.387,1.598-1.891c0.881-0.65,1.881-0.97,2.964-1.041c0.465-0.031,0.93-0.018,1.393,0.04
			c0.472,0.059,0.933,0.164,1.379,0.333c0.769,0.293,1.424,0.747,1.944,1.39c0.502,0.621,0.819,1.331,1.014,2.099
			c0.144,0.569,0.224,1.147,0.236,1.735c0.013,0.648,0.006,1.295-0.085,1.938c-0.062,0.431-0.141,0.859-0.248,1.282
			c-0.126,0.495-0.284,0.979-0.486,1.449c-0.023,0.053-0.051,0.083-0.11,0.093c-0.428,0.071-0.857,0.105-1.292,0.063
			c-0.482-0.046-0.937-0.177-1.357-0.419c-0.342-0.197-0.636-0.449-0.867-0.773c-0.032-0.045-0.036-0.086-0.021-0.135
			c0.146-0.479,0.258-0.967,0.34-1.461c0.053-0.318,0.091-0.637,0.103-0.959c0.014-0.397,0.005-0.793-0.059-1.187
			c-0.054-0.329-0.139-0.649-0.297-0.944c-0.239-0.445-0.589-0.74-1.108-0.793c-0.378-0.038-0.723,0.052-1.025,0.286
			c-0.281,0.217-0.462,0.508-0.593,0.832c-0.176,0.433-0.248,0.888-0.272,1.351c-0.024,0.469-0.006,0.936,0.052,1.402
			c0.07,0.56,0.197,1.106,0.407,1.631c0.583,1.459,1.595,2.483,3.077,3.027c0.494,0.181,1.006,0.28,1.53,0.322
			c0.348,0.028,0.696,0.027,1.043-0.002c0.239-0.02,0.478-0.052,0.716-0.086c0.183-0.026,0.364-0.065,0.545-0.098
			c0.021,0.089,0.018,2.896-0.003,2.973c-0.971,0.218-1.957,0.325-2.954,0.339c-0.015,0.027-0.028,0.049-0.04,0.073
			c-0.236,0.496-0.494,0.981-0.767,1.458c-0.632,1.102-1.346,2.149-2.125,3.151c-0.85,1.093-1.763,2.13-2.77,3.081
			c-0.367,0.346-0.745,0.68-1.157,0.971c-0.313,0.221-0.652,0.388-1.03,0.469c-0.066,0.014-0.132,0.032-0.197,0.049
			c-0.143,0-0.286,0-0.429,0c-0.037-0.011-0.073-0.028-0.11-0.034c-0.299-0.049-0.574-0.16-0.836-0.308
			c-0.432-0.245-0.821-0.549-1.194-0.874c-0.776-0.676-1.454-1.441-2.074-2.259c-0.982-1.295-1.79-2.694-2.49-4.157
			c-0.47-0.982-0.883-1.988-1.254-3.012c-0.27-0.745-0.516-1.498-0.74-2.258c-0.26-0.882-0.498-1.769-0.699-2.666
			c-0.146-0.653-0.291-1.306-0.417-1.963c-0.132-0.689-0.246-1.381-0.359-2.074c-0.073-0.442-0.129-0.887-0.196-1.331
			C7.087,9.481,7.063,9.4,7.044,9.319z"/>
	</g>
</g>
</svg>
