<?xml version="1.0" encoding="utf-8"?>
<!-- Generator: Adobe Illustrator 18.0.0, SVG Export Plug-In . SVG Version: 6.00 Build 0)  -->
<!DOCTYPE svg PUBLIC "-//W3C//DTD SVG 1.1//EN" "http://www.w3.org/Graphics/SVG/1.1/DTD/svg11.dtd">
<svg version="1.1" xmlns="http://www.w3.org/2000/svg" xmlns:xlink="http://www.w3.org/1999/xlink" x="0px" y="0px"
	 viewBox="0 0 36 36" enable-background="new 0 0 36 36" xml:space="preserve">
<g id="Layer_2_5_">
</g>
<g id="Layer_1">
	<path id="White_1_" fill="#FFFFFF" d="M29.1,5.5H6.9c-0.8,0-1.4,0.6-1.4,1.4v22.2c0,0.8,0.6,1.4,1.4,1.4h12v-9.7h-3.3V17h3.3v-2.8
		c0-3.2,2-5,4.9-5c1.4,0,2.6,0.1,2.9,0.1v3.4l-2,0c-1.6,0-1.9,0.7-1.9,1.8V17h3.7L26,20.8h-3.2v9.7h6.4c0.8,0,1.4-0.6,1.4-1.4V6.9
		C30.5,6.1,29.9,5.5,29.1,5.5z"/>
</g>
</svg>
