<?xml version="1.0" encoding="utf-8"?>
<!-- Generator: Adobe Illustrator 18.1.0, SVG Export Plug-In . SVG Version: 6.00 Build 0)  -->
<!DOCTYPE svg PUBLIC "-//W3C//DTD SVG 1.1//EN" "http://www.w3.org/Graphics/SVG/1.1/DTD/svg11.dtd">
<svg version="1.1" id="Layer_1" xmlns="http://www.w3.org/2000/svg" xmlns:xlink="http://www.w3.org/1999/xlink" x="0px" y="0px"
	 viewBox="0 0 64 64" enable-background="new 0 0 64 64" xml:space="preserve">
<g id="vimeo">
	<path fill="#6AC5B7" d="M46,26c-0.1,2.9-2.2,6.9-6.1,12c-4.1,5.3-7.5,7.9-10.4,7.9c-1.7,0-3.2-1.6-4.4-4.8c-0.8-3-1.6-5.9-2.4-8.9
		c-0.9-3.2-1.9-4.8-2.9-4.8c-0.2,0-1,0.5-2.4,1.4L16,27c1.5-1.3,2.9-2.6,4.4-3.9c2-1.7,3.4-2.6,4.4-2.7c2.3-0.2,3.8,1.4,4.3,4.8
		c0.6,3.7,1,6,1.2,6.9c0.7,3,1.4,4.6,2.2,4.6c0.6,0,1.6-1,2.8-3c1.3-2,1.9-3.5,2-4.5c0.2-1.7-0.5-2.6-2-2.6c-0.7,0-1.5,0.2-2.2,0.5
		c1.5-4.8,4.3-7.1,8.5-7C44.7,20.1,46.2,22.1,46,26z"/>
</g>
</svg>
