<?xml version="1.0" encoding="utf-8"?>
<!-- Generator: Adobe Illustrator 18.1.0, SVG Export Plug-In . SVG Version: 6.00 Build 0)  -->
<!DOCTYPE svg PUBLIC "-//W3C//DTD SVG 1.1//EN" "http://www.w3.org/Graphics/SVG/1.1/DTD/svg11.dtd">
<svg version="1.1" id="Layer_1" xmlns="http://www.w3.org/2000/svg" xmlns:xlink="http://www.w3.org/1999/xlink" x="0px" y="0px"
	 viewBox="0 0 64 64" enable-background="new 0 0 64 64" xml:space="preserve">
<g id="youtube">
	<path fill="#6AC5B7" d="M48.4,23.9c0-0.1,0-0.3-0.1-0.4c0-0.1,0-0.1-0.1-0.2c-0.4-1.3-1.6-2.2-3.1-2.2h0.2c0,0-5.8-0.9-13.4-0.9
		c-7.7,0-13.4,0.9-13.4,0.9h0.2c-1.4,0-2.6,0.9-3.1,2.2c0,0.1,0,0.1-0.1,0.2c0,0.1-0.1,0.3-0.1,0.4c0,1.5-0.4,4.5-0.4,8.1
		s0.4,6.6,0.6,8.1c0,0.1,0,0.3,0.1,0.4c0,0.1,0,0.1,0.1,0.2c0.4,1.3,1.6,2.2,3.1,2.2h-0.2c0,0,5.8,0.9,13.4,0.9
		c7.7,0,13.4-0.9,13.4-0.9h-0.2c1.4,0,2.6-0.9,3.1-2.2c0-0.1,0-0.1,0.1-0.2c0-0.1,0.1-0.2,0.1-0.4c0.2-1.5,0.6-4.5,0.6-8.1
		C49,28.4,48.6,25.4,48.4,23.9z M37,32.7l-6.9,5c-0.1,0.1-0.3,0.2-0.5,0.2c-0.1,0-0.3,0-0.4-0.1c-0.3-0.1-0.5-0.4-0.5-0.7v-10
		c0-0.3,0.2-0.6,0.5-0.7s0.6-0.1,0.9,0.1l6.9,5c0.2,0.2,0.3,0.4,0.3,0.7C37.4,32.3,37.3,32.6,37,32.7z"/>
</g>
</svg>
