<?xml version="1.0" encoding="utf-8"?>
<!-- Generator: Adobe Illustrator 18.1.0, SVG Export Plug-In . SVG Version: 6.00 Build 0)  -->
<!DOCTYPE svg PUBLIC "-//W3C//DTD SVG 1.1//EN" "http://www.w3.org/Graphics/SVG/1.1/DTD/svg11.dtd">
<svg version="1.1" id="Layer_1" xmlns="http://www.w3.org/2000/svg" xmlns:xlink="http://www.w3.org/1999/xlink" x="0px" y="0px"
	 viewBox="0 0 64 64" enable-background="new 0 0 64 64" xml:space="preserve">
<g id="linkedin">
	<g>
		<rect x="16.8" y="27.7" fill="#FFFFFF" width="6.2" height="20"/>
		<path fill="#FFFFFF" d="M40.1,27.5c-3.6,0-5.8,2-6.2,3.3v-3.1h-7c0.1,1.7,0,20,0,20h7V36.9c0-0.6,0-1.2,0.2-1.6
			c0.5-1.2,1.5-2.4,3.4-2.4c2.4,0,3.5,1.8,3.5,4.5v10.3H48V36.6C48,30.4,44.5,27.5,40.1,27.5z"/>
		<path fill="#FFFFFF" d="M19.8,18.3c-2.3,0-3.8,1.5-3.8,3.5c0,1.9,1.5,3.5,3.7,3.5h0c2.3,0,3.8-1.5,3.8-3.5
			C23.5,19.8,22.1,18.3,19.8,18.3z"/>
	</g>
</g>
</svg>
