<?xml version="1.0" encoding="utf-8"?>
<!-- Generator: Adobe Illustrator 18.1.0, SVG Export Plug-In . SVG Version: 6.00 Build 0)  -->
<!DOCTYPE svg PUBLIC "-//W3C//DTD SVG 1.1//EN" "http://www.w3.org/Graphics/SVG/1.1/DTD/svg11.dtd">
<svg version="1.1" id="Layer_1" xmlns="http://www.w3.org/2000/svg" xmlns:xlink="http://www.w3.org/1999/xlink" x="0px" y="0px"
	 viewBox="0 0 64 64" enable-background="new 0 0 64 64" xml:space="preserve">
<g id="google_x2B_">
	<g>
		<path fill="#6AC5B7" d="M32.8,35c-0.8-0.5-2.2-1.8-2.2-2.6c0-0.9,0.3-1.3,1.6-2.4c1.4-1.1,2.4-2.6,2.4-4.4c0-2.1-0.9-4.1-2.7-4.8
			h2.6l1.9-1.4H28c-3.7,0-7.3,2.8-7.3,6.1c0,3.4,2.6,6.1,6.4,6.1c0.3,0,0.5,0,0.8,0c-0.2,0.5-0.4,1-0.4,1.6c0,0.9,0.5,1.7,1.1,2.3
			c-0.5,0-0.9,0-1.4,0c-4.6,0-8.2,3-8.2,6s3.9,4.9,8.6,4.9c5.3,0,8.2-3,8.2-6C35.8,38,35.1,36.6,32.8,35z M28.4,30.9
			c-2.2-0.1-4.2-2.4-4.6-5.2c-0.4-2.8,1.1-5,3.2-4.9c2.2,0.1,4.2,2.3,4.6,5.2C32,28.7,30.5,30.9,28.4,30.9z M27.5,45.2
			c-3.2,0-5.5-2-5.5-4.5c0-2.4,2.9-4.4,6.1-4.3c0.7,0,1.4,0.1,2.1,0.3c1.7,1.2,3,1.9,3.3,3.3c0.1,0.3,0.1,0.6,0.1,0.9
			C33.6,43.2,32,45.2,27.5,45.2z"/>
		<polygon fill="#6AC5B7" points="41.7,31.1 41.7,27.8 39.1,27.8 39.1,31.1 35.9,31.1 35.9,33.7 39.1,33.7 39.1,37 41.7,37 
			41.7,33.7 45,33.7 45,31.1 		"/>
	</g>
</g>
</svg>
