<?xml version="1.0" encoding="utf-8"?>
<!-- Generator: Adobe Illustrator 18.1.0, SVG Export Plug-In . SVG Version: 6.00 Build 0)  -->
<!DOCTYPE svg PUBLIC "-//W3C//DTD SVG 1.1//EN" "http://www.w3.org/Graphics/SVG/1.1/DTD/svg11.dtd">
<svg version="1.1" id="Layer_1" xmlns="http://www.w3.org/2000/svg" xmlns:xlink="http://www.w3.org/1999/xlink" x="0px" y="0px"
	 viewBox="0 0 64 64" enable-background="new 0 0 64 64" xml:space="preserve">
<g id="twitter">
	<path fill="#FFFFFF" d="M47,24c-1.1,0.5-2.3,0.9-3.5,1c1.3-0.8,2.3-2.1,2.7-3.7c-1.2,0.8-2.5,1.3-3.9,1.6c-1.1-1.3-2.7-2.1-4.5-2.1
		c-3.4,0-6.2,3-6.2,6.6c0,0.5,0.1,1,0.2,1.5c-5.1-0.3-9.6-2.9-12.7-6.9c-0.5,1-0.8,2.1-0.8,3.3c0,2.3,1.1,4.3,2.7,5.5
		c-1,0-2-0.3-2.8-0.8c0,0,0,0.1,0,0.1c0,3.2,2.1,5.9,4.9,6.5c-0.5,0.2-1.1,0.2-1.6,0.2c-0.4,0-0.8,0-1.2-0.1
		c0.8,2.6,3.1,4.6,5.7,4.6c-2.1,1.8-4.8,2.8-7.6,2.8c-0.5,0-1,0-1.5-0.1c2.7,1.9,6,3,9.4,3c11.3,0,17.5-10.1,17.5-18.9
		c0-0.3,0-0.6,0-0.8C45.1,26.5,46.2,25.3,47,24z"/>
</g>
</svg>
