<?xml version="1.0" encoding="utf-8"?>
<!-- Generator: Adobe Illustrator 18.1.0, SVG Export Plug-In . SVG Version: 6.00 Build 0)  -->
<!DOCTYPE svg PUBLIC "-//W3C//DTD SVG 1.1//EN" "http://www.w3.org/Graphics/SVG/1.1/DTD/svg11.dtd">
<svg version="1.1" id="Layer_1" xmlns="http://www.w3.org/2000/svg" xmlns:xlink="http://www.w3.org/1999/xlink" x="0px" y="0px"
	 viewBox="0 0 64 64" enable-background="new 0 0 64 64" xml:space="preserve">
<g id="dribbble">
	<path fill="#FFFFFF" d="M46.7,29c-0.2-1-0.5-1.9-0.9-2.8c-0.4-0.9-0.8-1.7-1.4-2.5c-0.5-0.8-1.2-1.5-1.8-2.2
		c-0.7-0.7-1.4-1.3-2.2-1.8c-0.8-0.5-1.7-1-2.5-1.4c-0.9-0.4-1.9-0.7-2.8-0.9c-1-0.2-2-0.3-3-0.3c-1,0-2,0.1-3,0.3
		c-1,0.2-1.9,0.5-2.8,0.9c-0.9,0.4-1.7,0.8-2.5,1.4c-0.8,0.5-1.5,1.2-2.2,1.8c-0.7,0.7-1.3,1.4-1.8,2.2c-0.5,0.8-1,1.7-1.4,2.5
		c-0.4,0.9-0.7,1.9-0.9,2.8c-0.2,1-0.3,2-0.3,3c0,1,0.1,2,0.3,3c0.2,1,0.5,1.9,0.9,2.8c0.4,0.9,0.8,1.7,1.4,2.5
		c0.5,0.8,1.2,1.5,1.8,2.2c0.7,0.7,1.4,1.3,2.2,1.8c0.8,0.5,1.7,1,2.5,1.4c0.9,0.4,1.9,0.7,2.8,0.9c1,0.2,2,0.3,3,0.3
		c1,0,2-0.1,3-0.3c1-0.2,1.9-0.5,2.8-0.9c0.9-0.4,1.7-0.8,2.5-1.4c0.8-0.5,1.5-1.2,2.2-1.8c0.7-0.7,1.3-1.4,1.8-2.2
		c0.5-0.8,1-1.7,1.4-2.5c0.4-0.9,0.7-1.9,0.9-2.8c0.2-1,0.3-2,0.3-3C47,31,46.9,30,46.7,29z M32,19.2c3.2,0,6.2,1.2,8.5,3.2
		c0,0-1.9,2.8-6.7,4.6c-2.2-4-4.6-7.2-4.8-7.5C29.9,19.3,31,19.2,32,19.2z M28.9,19.6C28.9,19.6,28.9,19.6,28.9,19.6
		C28.9,19.6,28.9,19.6,28.9,19.6C28.9,19.6,28.9,19.6,28.9,19.6z M26.5,20.4c0.2,0.2,2.5,3.4,4.8,7.4c-6.2,1.6-11.5,1.6-11.8,1.6
		C20.3,25.4,23,22.1,26.5,20.4z M22.5,40.6c-2-2.3-3.3-5.3-3.3-8.6c0-0.1,0-0.3,0-0.4c0.2,0,6.6,0.1,13.2-1.8c0.4,0.7,0.7,1.4,1,2.2
		c-0.2,0-0.3,0.1-0.5,0.2C26,34.3,22.5,40.6,22.5,40.6C22.5,40.6,22.5,40.6,22.5,40.6z M32,44.8c-3,0-5.7-1-7.9-2.7l0,0
		c0,0-0.1-0.1-0.3-0.2c0.1,0.1,0.2,0.1,0.3,0.2c0-0.1,2.5-5.4,10.1-8c0,0,0.1,0,0.1,0c1.8,4.7,2.5,8.6,2.7,9.7
		C35.5,44.4,33.8,44.8,32,44.8z M39.2,42.6c-0.1-0.8-0.8-4.5-2.5-9.2c4.1-0.7,7.7,0.5,8,0.6C44.1,37.6,42,40.7,39.2,42.6z
		 M35.9,31.5c-0.1-0.2-0.2-0.4-0.3-0.7c-0.3-0.6-0.6-1.2-0.9-1.9c5.1-2.1,7.1-5,7.1-5.1c1.8,2.2,2.9,5,2.9,8
		C44.6,31.8,40.3,30.9,35.9,31.5z"/>
</g>
</svg>
