<?xml version="1.0" encoding="utf-8"?>
<!-- Generator: Adobe Illustrator 18.1.0, SVG Export Plug-In . SVG Version: 6.00 Build 0)  -->
<!DOCTYPE svg PUBLIC "-//W3C//DTD SVG 1.1//EN" "http://www.w3.org/Graphics/SVG/1.1/DTD/svg11.dtd">
<svg version="1.1" id="Layer_1" xmlns="http://www.w3.org/2000/svg" xmlns:xlink="http://www.w3.org/1999/xlink" x="0px" y="0px"
	 viewBox="0 0 64 64" enable-background="new 0 0 64 64" xml:space="preserve">
<g id="instagram">
	<path fill="#FFFFFF" d="M40.6,18H23.4c-3,0-5.4,2.4-5.4,5.4v5.7v11.5c0,3,2.4,5.4,5.4,5.4h17.2c3,0,5.4-2.4,5.4-5.4V29.1v-5.7
		C46,20.4,43.6,18,40.6,18z M42.1,21.2l0.6,0v0.6V26L38,26l0-4.7L42.1,21.2z M28,29.1c0.9-1.2,2.4-2.1,4-2.1c1.6,0,3.1,0.8,4,2.1
		c0.6,0.8,0.9,1.8,0.9,2.9c0,2.7-2.2,4.9-4.9,4.9s-4.9-2.2-4.9-4.9C27.1,30.9,27.4,29.9,28,29.1z M43.3,40.6c0,1.5-1.2,2.7-2.7,2.7
		H23.4c-1.5,0-2.7-1.2-2.7-2.7V29.1h4.2C24.5,30,24.3,31,24.3,32c0,4.2,3.4,7.7,7.7,7.7c4.2,0,7.7-3.4,7.7-7.7c0-1-0.2-2-0.6-2.9
		h4.2V40.6z"/>
</g>
</svg>
