<?xml version="1.0" encoding="utf-8"?>
<!-- Generator: Adobe Illustrator 18.1.0, SVG Export Plug-In . SVG Version: 6.00 Build 0)  -->
<!DOCTYPE svg PUBLIC "-//W3C//DTD SVG 1.1//EN" "http://www.w3.org/Graphics/SVG/1.1/DTD/svg11.dtd">
<svg version="1.1" id="Layer_1" xmlns="http://www.w3.org/2000/svg" xmlns:xlink="http://www.w3.org/1999/xlink" x="0px" y="0px"
	 viewBox="0 0 64 64" enable-background="new 0 0 64 64" xml:space="preserve">
<g id="tumblr">
	<path fill="#6AC5B7" d="M33,20v6.6h6.2v4.1H33v6.7c0,1.5,0.1,2.5,0.2,2.9c0.2,0.4,0.5,0.8,0.9,1c0.6,0.3,1.2,0.5,2,0.5
		c1.3,0,2.6-0.4,3.9-1.3v4.1c-1.1,0.5-2.1,0.9-3,1.1c-0.9,0.2-1.9,0.3-2.9,0.3c-1.2,0-2.2-0.2-3.1-0.4c-0.9-0.3-1.7-0.7-2.3-1.3
		c-0.6-0.6-1.1-1.1-1.3-1.8C27.2,41.9,27,41,27,39.8v-9.1h-3V27c1-0.3,1.9-0.8,2.6-1.4s1.3-1.4,1.8-2.2c0.4-0.9,0.7-2,0.9-3.3H33V20
		z"/>
</g>
</svg>
