<?xml version="1.0" encoding="utf-8"?>
<!-- Generator: Adobe Illustrator 18.1.0, SVG Export Plug-In . SVG Version: 6.00 Build 0)  -->
<!DOCTYPE svg PUBLIC "-//W3C//DTD SVG 1.1//EN" "http://www.w3.org/Graphics/SVG/1.1/DTD/svg11.dtd">
<svg version="1.1" id="Layer_1" xmlns="http://www.w3.org/2000/svg" xmlns:xlink="http://www.w3.org/1999/xlink" x="0px" y="0px"
	 viewBox="0 0 64 64" enable-background="new 0 0 64 64" xml:space="preserve">
<g id="pinterest">
	<path fill="#FFFFFF" d="M32,17c-8.3,0-15,6.7-15,15c0,6.1,3.7,11.4,9,13.7c0-1,0-2.3,0.3-3.4c0.3-1.2,1.9-8.2,1.9-8.2
		s-0.5-1-0.5-2.4c0-2.2,1.3-3.9,2.9-3.9c1.4,0,2,1,2,2.3c0,1.4-0.9,3.4-1.3,5.3c-0.4,1.6,0.8,2.9,2.4,2.9c2.8,0,4.8-3.6,4.8-8
		c0-3.3-2.2-5.7-6.2-5.7c-4.6,0-7.4,3.4-7.4,7.2c0,1.3,0.4,2.2,1,2.9c0.3,0.3,0.3,0.5,0.2,0.8c-0.1,0.3-0.2,0.9-0.3,1.2
		c-0.1,0.4-0.4,0.5-0.8,0.4c-2.1-0.9-3.1-3.2-3.1-5.7c0-4.3,3.6-9.4,10.7-9.4c5.7,0,9.5,4.1,9.5,8.6c0,5.9-3.3,10.3-8.1,10.3
		c-1.6,0-3.1-0.9-3.7-1.9c0,0-0.9,3.5-1.1,4.1c-0.3,1.2-0.9,2.3-1.5,3.2c1.3,0.4,2.8,0.6,4.3,0.6c8.3,0,15-6.7,15-15
		C47,23.7,40.3,17,32,17z"/>
</g>
</svg>
