<?xml version="1.0" encoding="utf-8"?>
<!-- Generator: Adobe Illustrator 18.1.0, SVG Export Plug-In . SVG Version: 6.00 Build 0)  -->
<!DOCTYPE svg PUBLIC "-//W3C//DTD SVG 1.1//EN" "http://www.w3.org/Graphics/SVG/1.1/DTD/svg11.dtd">
<svg version="1.1" id="Layer_1" xmlns="http://www.w3.org/2000/svg" xmlns:xlink="http://www.w3.org/1999/xlink" x="0px" y="0px"
	 viewBox="0 0 64 64" enable-background="new 0 0 64 64" xml:space="preserve">
<g id="behance">
	<g>
		<rect x="37.9" y="21.9" fill="#6AC5B7" width="9.3" height="2.7"/>
		<path fill="#6AC5B7" d="M50.4,32.5c-0.2-1.3-0.6-2.4-1.3-3.3c-0.7-1.1-1.6-1.9-2.8-2.4c-1.1-0.5-2.4-0.8-3.8-0.8
			c-2.3,0-4.2,0.7-5.7,2.2s-2.2,3.6-2.2,6.4c0,3,0.8,5.1,2.4,6.4c1.6,1.3,3.5,2,5.6,2c2.6,0,4.6-0.8,6-2.3c0.9-1,1.4-1.9,1.5-2.9H46
			c-0.2,0.5-0.5,0.8-0.9,1.1c-0.6,0.5-1.4,0.7-2.3,0.7c-0.9,0-1.7-0.2-2.3-0.6c-1.1-0.6-1.6-1.8-1.7-3.4h11.7
			C50.5,34.3,50.5,33.3,50.4,32.5z M38.9,33c0.2-1,0.5-1.9,1.1-2.5s1.4-0.9,2.5-0.9c1,0,1.8,0.3,2.5,0.9s1,1.4,1.1,2.5H38.9z"/>
		<path fill="#6AC5B7" d="M29.9,30.9c0.7-0.4,1.3-0.8,1.7-1.2c0.7-0.8,1-1.9,1-3.2c0-1.3-0.3-2.4-1-3.3c-1.1-1.5-3-2.3-5.6-2.3H15.5
			v21.6h9.7c1.1,0,2.1-0.1,3.1-0.3c0.9-0.2,1.8-0.6,2.4-1.1s1.1-1,1.5-1.7c0.6-1,1-2.2,1-3.4s-0.3-2.3-0.8-3.2
			C31.8,32,31,31.3,29.9,30.9z M19.8,24.7h4.7c1,0,1.9,0.1,2.6,0.3c0.8,0.3,1.2,1,1.2,2c0,0.9-0.3,1.5-0.9,1.9s-1.4,0.5-2.3,0.5
			h-5.3C19.8,29.4,19.8,24.7,19.8,24.7z M27.3,38.4c-0.5,0.3-1.3,0.4-2.2,0.4h-5.3V33h5.3c0.9,0,1.6,0.1,2.2,0.4
			c0.9,0.4,1.4,1.2,1.4,2.3C28.7,37,28.2,37.9,27.3,38.4z"/>
	</g>
</g>
</svg>
