<?xml version="1.0" encoding="utf-8"?>
<!-- Generator: Adobe Illustrator 18.1.0, SVG Export Plug-In . SVG Version: 6.00 Build 0)  -->
<!DOCTYPE svg PUBLIC "-//W3C//DTD SVG 1.1//EN" "http://www.w3.org/Graphics/SVG/1.1/DTD/svg11.dtd">
<svg version="1.1" id="Layer_1" xmlns="http://www.w3.org/2000/svg" xmlns:xlink="http://www.w3.org/1999/xlink" x="0px" y="0px"
	 viewBox="0 0 64 64" enable-background="new 0 0 64 64" xml:space="preserve">
<g id="Layer_1_1_">
	<path id="White_1_" fill="#FFFFFF" d="M44.3,18.1H19.6c-0.9,0-1.6,0.7-1.6,1.6v24.8c0,0.9,0.7,1.6,1.6,1.6h13.4V35.1h-3.7v-4.2h3.7
		v-3.1c0-3.6,2.2-5.6,5.5-5.6c1.6,0,2.9,0.1,3.2,0.1v3.8h-2.2c-1.8,0-2.1,0.8-2.1,2v2.8h4.1l-0.6,4.2h-3.6v10.8h7.1
		c0.9,0,1.6-0.7,1.6-1.6V19.6C45.9,18.7,45.2,18.1,44.3,18.1z"/>
</g>
</svg>
